<svg xmlns="http://www.w3.org/2000/svg" viewBox="0 0 64 64" role="img" aria-labelledby="title desc">
  <title id="title">Popte Dental Care</title>
  <desc id="desc">Minimal tooth logo for Popte Dental Care</desc>
  <rect width="64" height="64" rx="16" fill="#0A2C43"/>
  <path d="M32 10c-6.9 0-12 5.7-12 12.4 0 3.2.9 5.9 1.8 8.5 1.1 3.1 1.8 5.7 2 8.3.2 2.7 1.4 5.8 4.3 5.8 2.3 0 3.1-2.1 3.9-4.8.6-2 1.2-4.4 2-4.4s1.4 2.4 2 4.4c.8 2.7 1.6 4.8 3.9 4.8 2.9 0 4.1-3.1 4.3-5.8.2-2.6.9-5.2 2-8.3.9-2.6 1.8-5.3 1.8-8.5C44 15.7 38.9 10 32 10Z" fill="#FFFFFF"/>
  <path d="M26.4 28.1c1.9-1.9 4.1-2.6 5.6-2.6 1.5 0 3.7.7 5.6 2.6" fill="none" stroke="#FF7A59" stroke-width="2.2" stroke-linecap="round"/>
</svg>
